<svg width="181" height="32" viewBox="0 0 181 32" fill="none" xmlns="http://www.w3.org/2000/svg">
<path fill-rule="evenodd" clip-rule="evenodd" d="M21.4727 0.0066405C22.3399 0.0201358 23.43 0.0808646 23.909 0.141593C24.3881 0.195575 25.1644 0.32378 25.6434 0.411499C26.1224 0.505966 26.8079 0.661163 27.1712 0.75563C27.5346 0.856844 28.2614 1.09976 28.7817 1.30219C29.302 1.50462 30.1031 1.86899 30.5573 2.11865C31.0446 2.38181 31.75 2.82213 32.2125 3.19999C32.6502 3.55087 33.3229 4.11199 33.5706 4.40888C33.8184 4.70578 34.2407 5.24665 34.4555 5.61777C34.6702 5.98889 34.8897 6.59776 35.0136 6.96888C35.2201 7.59641 35.2648 7.82716 35.2648 9.11596C35.1822 10.3643 35.0986 10.398 34.9014 11.0053C34.7941 11.3359 34.5959 11.842 34.4555 12.1187C34.3151 12.3953 34.0508 12.8339 33.8691 13.0971C33.6956 13.3602 33.3983 13.7381 33.2166 13.9405C33.0349 14.143 32.4734 14.649 31.9696 15.0606C31.3419 15.5667 30.7555 15.9648 30.1031 16.3224C29.5828 16.6058 28.6165 17.0444 27.9558 17.3009C27.2951 17.5573 26.3536 17.9014 25.8581 18.0633C25.2717 18.2523 24.9001 18.421 24.801 18.5289C24.7184 18.6234 24.6441 18.7381 24.6523 18.7853C24.6523 18.8258 24.9414 19.116 25.2965 19.4264C25.7012 19.784 26.0563 20.1821 26.271 20.5262C26.461 20.8164 26.7583 21.3629 26.9235 21.7341C27.0887 22.1052 27.4273 23.0499 27.675 23.8258C27.9228 24.6018 28.2284 25.4723 28.3522 25.7489C28.4761 26.0256 28.7156 26.4507 28.8808 26.6936C29.0377 26.9365 29.3515 27.2874 29.5745 27.4763C29.7975 27.6585 30.2022 27.9014 30.4747 28.0161C30.8959 28.1781 31.0694 28.2118 31.5897 28.2118C32.0687 28.2051 32.3082 28.1713 32.655 28.0431C32.9111 27.9486 33.2249 27.7597 33.3818 27.6045C33.5387 27.4561 33.6956 27.2266 33.7369 27.0984C33.7865 26.9567 33.7865 26.7678 33.7452 26.6261C33.6956 26.4911 33.5387 26.3022 33.3818 26.1875C33.2249 26.0795 32.9358 25.8906 32.7459 25.7826C32.5559 25.6747 32.2669 25.4115 32.0935 25.2091C31.8952 24.9662 31.7466 24.6828 31.6805 24.3994C31.6062 24.1227 31.5814 23.8056 31.6144 23.5559C31.6475 23.3265 31.7796 22.9756 31.9118 22.7462C32.0522 22.51 32.3164 22.2131 32.5559 22.0377C32.7789 21.869 33.1423 21.6598 33.3653 21.5789C33.5965 21.4911 33.9847 21.3899 34.2325 21.3494C34.5463 21.309 34.8436 21.309 35.1822 21.3562C35.4548 21.3967 35.876 21.5046 36.1155 21.5991C36.3467 21.6936 36.7431 21.9162 36.9744 22.0984C37.2139 22.2806 37.5277 22.6045 37.6764 22.8204C37.8168 23.0431 37.9985 23.4007 38.0645 23.6234C38.1389 23.8461 38.1967 24.2644 38.1967 24.5546C38.1967 24.838 38.1389 25.2968 38.0645 25.5667C37.9985 25.8299 37.825 26.282 37.6929 26.5586C37.5525 26.8353 37.3047 27.2469 37.1478 27.4696C36.9909 27.6922 36.6771 28.0701 36.4623 28.313C36.2476 28.5559 35.6695 29.062 35.1905 29.4466C34.7115 29.8245 33.9682 30.3171 33.547 30.5465C33.1341 30.7759 32.5807 31.0458 32.333 31.147C32.0852 31.2482 31.5649 31.4237 31.1767 31.5384C30.7886 31.6464 30.1939 31.7881 29.8553 31.842C29.5167 31.896 28.9551 31.9635 28.6165 31.9905C28.2779 32.0107 27.6668 31.9972 27.2538 31.9635C26.8409 31.923 26.271 31.842 25.9737 31.7813C25.6764 31.7206 25.1231 31.5519 24.7349 31.4034C24.3468 31.255 23.8099 31.0053 23.5374 30.8434C23.2649 30.6882 22.8354 30.3778 22.5794 30.1619C22.3316 29.9392 21.9765 29.5816 21.7865 29.3589C21.6049 29.1362 21.2993 28.6976 21.1011 28.3805C20.9111 28.0634 20.6303 27.5033 20.4734 27.1322C20.3248 26.7611 20.0852 25.9986 19.9449 25.4453C19.7962 24.8852 19.5567 24.0822 19.408 23.6571C19.2594 23.232 19.0199 22.6382 18.8795 22.3413C18.7391 22.0445 18.4748 21.6059 18.3014 21.3629C18.1197 21.12 17.8306 20.7894 17.6572 20.6274C17.4837 20.4655 17.1947 20.2496 17.013 20.1484C16.8313 20.0471 16.4927 19.9189 16.2697 19.8515C16.0385 19.7907 15.6008 19.7435 15.2787 19.7435C14.9566 19.7435 14.5849 19.7705 14.4528 19.811C14.2133 19.8785 14.1885 19.9324 13.6765 21.3157C13.3792 22.0984 12.8919 23.367 12.5863 24.1295C12.289 24.892 11.8513 25.8906 11.62 26.3562C11.3971 26.8218 11.0502 27.4898 10.8437 27.8407C10.6455 28.1916 10.3069 28.7044 10.0922 28.9675C9.87745 29.2374 9.5471 29.6018 9.34889 29.7705C9.15894 29.9459 8.77904 30.2091 8.5065 30.3575C8.23396 30.506 7.80451 30.6882 7.55674 30.7624C7.30898 30.8299 6.76391 30.9041 6.35923 30.9244C5.75634 30.9581 5.49206 30.9311 4.95524 30.8164C4.59186 30.7354 4.10459 30.5802 3.88161 30.4723C3.65036 30.371 3.2622 30.1484 3.01444 29.9864C2.76668 29.8245 2.38677 29.5073 2.18031 29.2847C1.96558 29.0688 1.7013 28.7314 1.57742 28.5492C1.4618 28.3602 1.34617 28.0296 1.31314 27.8069C1.26359 27.4831 1.2801 27.3616 1.38747 27.2131C1.4618 27.1119 1.84996 26.8555 2.24638 26.6463C2.65106 26.4372 3.17135 26.1133 3.41912 25.9243C3.66688 25.7354 4.12111 25.3103 4.4432 24.9729C4.75703 24.6355 5.26081 24.0283 5.55813 23.6234C5.84719 23.2185 6.37574 22.4088 6.72261 21.8353C7.06948 21.2617 7.49893 20.533 7.67237 20.2158C7.85406 19.8987 8.25874 19.1565 8.58909 18.5627C8.91118 17.9689 9.51407 16.8893 9.91049 16.1673C10.3152 15.4453 11.0584 14.1834 11.5622 13.367C12.066 12.5505 12.7185 11.5721 13.0075 11.1875C13.3048 10.8029 13.8416 10.1686 14.1968 9.77049C14.5602 9.37237 15.1548 8.80557 15.5182 8.50867C15.8898 8.21178 16.4349 7.84066 16.7239 7.68546C17.0213 7.53026 17.4755 7.33458 17.7315 7.26036C17.9958 7.18614 18.4087 7.12541 18.64 7.12541C18.9373 7.11866 19.1107 7.1524 19.1768 7.22662C19.2676 7.30759 19.2346 7.44255 18.9868 7.98236C18.8299 8.34673 18.4583 9.20368 18.1692 9.89194C17.8884 10.5802 17.236 12.1119 16.7239 13.2995C16.2202 14.4871 15.7329 15.6274 15.642 15.8299C15.5512 16.0323 15.4851 16.2145 15.4851 16.2347C15.4851 16.255 16.0137 16.2482 16.6579 16.2212C17.3186 16.201 18.2436 16.1133 18.7473 16.0323C19.2429 15.9513 20.0274 15.7759 20.4817 15.6477C20.9359 15.5195 21.6379 15.2766 22.0508 15.1079C22.4638 14.9392 23.0419 14.6693 23.3475 14.5073C23.6613 14.3454 24.1898 13.9878 24.5367 13.7179C24.8836 13.4547 25.3791 12.9756 25.6351 12.6585C25.8994 12.3413 26.2298 11.8285 26.3784 11.5114C26.5271 11.1942 26.7088 10.7421 26.7666 10.4992C26.8326 10.2563 26.907 9.74349 26.94 9.35213C26.973 8.90679 26.9565 8.4412 26.8904 8.10382C26.8326 7.80692 26.7088 7.35483 26.6179 7.09167C26.5271 6.82851 26.2958 6.37642 26.1141 6.07952C25.8581 5.68141 25.5856 5.38451 25.0653 4.95941C24.6276 4.59504 24.1651 4.2914 23.8265 4.1362C23.5291 4.008 23.0336 3.83256 22.7115 3.75158C22.2656 3.63013 21.8609 3.58964 20.9359 3.5694C19.9283 3.54241 19.6062 3.56265 18.8712 3.68411C18.3922 3.76508 17.6489 3.93377 17.2195 4.06872C16.79 4.20368 16.0798 4.45334 15.6503 4.62878C15.2209 4.80422 14.4776 5.16184 13.9986 5.425C13.5196 5.68816 12.7763 6.14025 12.3468 6.43715C11.9174 6.72729 11.141 7.33458 10.6207 7.77318C10.1004 8.21178 9.34063 8.94052 8.93595 9.38587C8.53128 9.83121 7.96968 10.5127 7.68889 10.8973C7.41635 11.2887 7.02291 11.7424 6.83296 11.9111C6.65127 12.0865 6.25186 12.3616 5.93803 12.537C5.6242 12.7192 5.15322 12.9679 4.88068 13.0489C4.47601 13.1771 4.25325 13.232 3.46867 13.2658C2.56021 13.232 2.44459 13.1511 1.9408 12.9486C1.60219 12.8137 1.24707 12.5977 0.966273 12.3616C0.735029 12.1524 0.437712 11.8083 0.313831 11.5923C0.115621 11.255 0 11.1335 0 10.5667C0.127322 9.88444 0.208363 9.70666 0.429455 9.34538C0.619406 9.03499 1.0819 8.44795 1.4618 8.03634C1.83344 7.62473 2.7419 6.80152 3.46867 6.20773C4.19544 5.60719 5.14519 4.89194 5.57465 4.61528C6.0041 4.33863 6.65654 3.94727 7.01993 3.73809C7.38331 3.53566 8.06879 3.17129 8.54779 2.94187C9.0268 2.7057 9.9683 2.29409 10.6538 2.02419C11.331 1.75428 12.2973 1.41015 12.801 1.2617C13.3048 1.10651 14.139 0.883835 14.6593 0.75563C15.1796 0.634172 16.1128 0.451986 16.7239 0.350771C17.3351 0.249556 18.3014 0.128098 18.8712 0.074117C19.5649 0.0133882 20.4156 -0.0136024 21.4727 0.0066405Z" fill="white"/>
<path d="M50.5877 12.8914H66.0344L64.8885 18.6514H49.4418L50.5877 12.8914ZM48.4792 26.0571H65.9886L64.751 32H39.9079L46.3249 -7.62939e-06H70.5721L69.3346 5.94285H52.5128L48.4792 26.0571Z" fill="white"/>
<path d="M70.6592 32L77.0762 -7.62939e-06H90.0478C94.0508 -7.62939e-06 97.1371 0.883802 99.3067 2.65142C101.507 4.38856 102.607 6.82666 102.607 9.96571C102.607 12.6476 101.98 14.9943 100.728 17.0057C99.4747 18.9867 97.6718 20.5105 95.3189 21.5771C92.9966 22.6438 90.2311 23.1771 87.0226 23.1771H76.6178L80.5597 19.7943L78.1304 32H70.6592ZM80.3764 20.6629L77.7637 17.1428H87.3435C89.7881 17.1428 91.6826 16.5943 93.0271 15.4971C94.4022 14.3695 95.0897 12.739 95.0897 10.6057C95.0897 9.05142 94.5703 7.90856 93.5313 7.17713C92.4924 6.41523 91.0256 6.03428 89.1311 6.03428H80.1014L84.0433 2.42285L80.3764 20.6629Z" fill="white"/>
<path d="M103.783 32L110.2 -7.62939e-06H117.671L112.446 25.9657H128.534L127.297 32H103.783Z" fill="white"/>
<path d="M131.446 32L137.863 -7.62939e-06H145.334L138.917 32H131.446Z" fill="white"/>
<path d="M142.864 32L160.145 13.3486L159.411 17.6L149.923 -7.62939e-06H157.853L164.453 12.6171L161.199 12.5257L172.566 -7.62939e-06H181L164.774 17.6L165.003 13.3943L175.179 32H167.158L160.19 18.6514L163.536 18.7886L151.757 32H142.864Z" fill="white"/>
</svg>
