<svg width="256" height="256" viewBox="0 0 256 256" fill="none" xmlns="http://www.w3.org/2000/svg">
<path d="M256 128C256 198.692 198.692 256 128 256C57.3075 256 0 198.692 0 128C0 57.3075 57.3075 0 128 0C198.692 0 256 57.3075 256 128Z" fill="#1E1B26"/>
<path fill-rule="evenodd" clip-rule="evenodd" d="M136.951 56.0299C140.221 56.0906 144.33 56.3639 146.136 56.6372C147.942 56.8801 150.869 57.457 152.675 57.8518C154.48 58.2769 157.065 58.9752 158.435 59.4004C159.805 59.8558 162.544 60.9489 164.506 61.8599C166.467 62.7708 169.488 64.4105 171.2 65.534C173.037 66.7182 175.696 68.6996 177.44 70.4C179.09 71.9789 181.626 74.504 182.56 75.84C183.494 77.176 185.086 79.61 185.896 81.28C186.705 82.95 187.533 85.69 188 87.36C188.778 90.1839 188.947 91.2222 188.947 97.0219C188.636 102.639 188.32 102.791 187.577 105.524C187.172 107.012 186.425 109.289 185.896 110.534C185.366 111.779 184.37 113.753 183.685 114.937C183.031 116.121 181.91 117.821 181.226 118.732C180.541 119.643 178.423 121.921 176.524 123.773C174.158 126.05 171.947 127.842 169.488 129.451C167.526 130.726 163.883 132.7 161.392 133.854C158.902 135.008 155.352 136.556 153.484 137.285C151.273 138.135 149.872 138.894 149.499 139.38C149.187 139.805 148.907 140.321 148.938 140.534C148.938 140.716 150.028 142.022 151.367 143.419C152.893 145.028 154.231 146.819 155.041 148.368C155.757 149.674 156.878 152.133 157.501 153.803C158.123 155.473 159.4 159.724 160.334 163.216C161.268 166.708 162.42 170.625 162.887 171.87C163.354 173.115 164.257 175.028 164.88 176.121C165.471 177.214 166.654 178.793 167.495 179.643C168.336 180.463 169.861 181.556 170.889 182.073C172.477 182.801 173.13 182.953 175.092 182.953C176.898 182.923 177.801 182.771 179.108 182.194C180.074 181.769 181.257 180.919 181.848 180.22C182.44 179.552 183.031 178.52 183.187 177.943C183.374 177.305 183.374 176.455 183.218 175.817C183.031 175.21 182.44 174.36 181.848 173.844C181.257 173.358 180.167 172.508 179.451 172.022C178.735 171.536 177.645 170.352 176.991 169.441C176.244 168.348 175.683 167.073 175.434 165.797C175.154 164.552 175.061 163.125 175.185 162.002C175.31 160.969 175.808 159.39 176.306 158.358C176.835 157.295 177.832 155.959 178.735 155.17C179.575 154.411 180.945 153.469 181.786 153.105C182.658 152.71 184.121 152.255 185.055 152.073C186.238 151.89 187.359 151.89 188.636 152.103C189.663 152.285 191.251 152.771 192.154 153.196C193.026 153.621 194.52 154.623 195.392 155.443C196.295 156.263 197.478 157.72 198.038 158.692C198.568 159.694 199.253 161.303 199.502 162.305C199.782 163.307 200 165.19 200 166.496C200 167.771 199.782 169.836 199.502 171.05C199.253 172.234 198.599 174.269 198.101 175.514C197.571 176.759 196.637 178.611 196.046 179.613C195.454 180.615 194.271 182.315 193.462 183.409C192.652 184.502 190.473 186.779 188.667 188.51C186.861 190.21 184.059 192.427 182.471 193.459C180.914 194.492 178.828 195.706 177.894 196.162C176.96 196.617 174.998 197.407 173.535 197.923C172.072 198.409 169.83 199.046 168.554 199.289C167.277 199.532 165.16 199.836 163.883 199.957C162.607 200.048 160.303 199.988 158.746 199.836C157.189 199.654 155.041 199.289 153.92 199.016C152.799 198.743 150.713 197.983 149.25 197.315C147.786 196.647 145.763 195.524 144.735 194.795C143.708 194.097 142.089 192.7 141.123 191.728C140.189 190.726 138.851 189.117 138.134 188.115C137.45 187.113 136.298 185.139 135.55 183.712C134.834 182.285 133.776 179.765 133.184 178.095C132.624 176.425 131.721 172.994 131.191 170.504C130.631 167.983 129.728 164.37 129.168 162.457C128.607 160.544 127.704 157.872 127.175 156.536C126.646 155.2 125.649 153.226 124.995 152.133C124.31 151.04 123.221 149.552 122.567 148.824C121.913 148.095 120.823 147.123 120.138 146.668C119.453 146.212 118.177 145.635 117.336 145.332C116.464 145.058 114.814 144.846 113.6 144.846C112.386 144.846 110.985 144.967 110.486 145.149C109.584 145.453 109.49 145.696 107.56 151.921C106.439 155.443 104.602 161.151 103.45 164.583C102.329 168.014 100.679 172.508 99.8071 174.603C98.9665 176.698 97.6588 179.704 96.8804 181.283C96.1332 182.862 94.8566 185.17 94.0471 186.354C93.2376 187.569 91.9922 189.208 91.245 189.967C90.5289 190.757 89.0966 191.941 88.0692 192.609C87.0417 193.277 85.4227 194.097 84.4886 194.431C83.5546 194.735 81.4997 195.069 79.974 195.16C77.7012 195.311 76.7049 195.19 74.6811 194.674C73.3111 194.309 71.4742 193.611 70.6335 193.125C69.7617 192.67 68.2984 191.668 67.3643 190.939C66.4303 190.21 64.998 188.783 64.2197 187.781C63.4102 186.809 62.4138 185.291 61.9468 184.471C61.5109 183.621 61.075 182.133 60.9505 181.131C60.7637 179.674 60.8259 179.127 61.2307 178.459C61.5109 178.004 62.9743 176.85 64.4688 175.909C65.9944 174.967 67.9559 173.51 68.8899 172.66C69.824 171.809 71.5364 169.896 72.7507 168.378C73.9338 166.86 75.8331 164.127 76.9539 162.305C78.0437 160.483 80.0363 156.84 81.344 154.259C82.6517 151.678 84.2707 148.398 84.9245 146.971C85.6095 145.544 87.1351 142.204 88.3805 139.532C89.5948 136.86 91.8677 132.002 93.3622 128.753C94.8878 125.504 97.6899 119.826 99.5892 116.151C101.488 112.477 103.948 108.074 105.038 106.344C106.159 104.613 108.182 101.759 109.521 99.9672C110.891 98.1757 113.133 95.6251 114.503 94.2891C115.904 92.953 117.959 91.283 119.049 90.5846C120.17 89.8862 121.882 89.0056 122.847 88.6716C123.843 88.3376 125.4 88.0644 126.272 88.0644C127.393 88.034 128.047 88.1858 128.296 88.5198C128.638 88.8842 128.514 89.4915 127.58 91.9206C126.988 93.5603 125.587 97.4166 124.497 100.514C123.439 103.611 120.979 110.504 119.049 115.848C117.149 121.192 115.312 126.324 114.97 127.234C114.627 128.145 114.378 128.965 114.378 129.056C114.378 129.147 116.371 129.117 118.8 128.996C121.29 128.904 124.777 128.51 126.677 128.145C128.545 127.781 131.503 126.992 133.215 126.415C134.928 125.838 137.574 124.745 139.131 123.985C140.688 123.226 142.867 122.012 144.019 121.283C145.202 120.554 147.195 118.945 148.502 117.73C149.81 116.546 151.678 114.39 152.643 112.963C153.64 111.536 154.885 109.228 155.446 107.801C156.006 106.374 156.691 104.34 156.909 103.247C157.158 102.153 157.438 99.8457 157.563 98.0846C157.687 96.0806 157.625 93.9854 157.376 92.4672C157.158 91.1312 156.691 89.0967 156.349 87.9125C156.006 86.7283 155.134 84.6939 154.449 83.3579C153.484 81.5664 152.457 80.2303 150.495 78.3174C148.845 76.6777 147.101 75.3113 145.825 74.6129C144.704 74.036 142.836 73.2465 141.622 72.8821C139.94 72.3356 138.415 72.1534 134.928 72.0623C131.129 71.9408 129.915 72.0319 127.144 72.5785C125.338 72.9429 122.536 73.702 120.917 74.3093C119.298 74.9166 116.62 76.04 115.001 76.8295C113.382 77.619 110.58 79.2283 108.774 80.4125C106.968 81.5967 104.166 83.6311 102.547 84.9672C100.928 86.2728 98.0013 89.0057 96.0398 90.9793C94.0783 92.953 91.2138 96.2324 89.6882 98.2364C88.1626 100.24 86.0454 103.307 84.9868 105.038C83.9593 106.799 82.4761 108.841 81.76 109.6C81.075 110.389 79.5693 111.627 78.3861 112.417C77.203 113.236 75.4275 114.356 74.4 114.72C72.8744 115.297 72.0346 115.544 69.0768 115.696C65.6519 115.544 65.216 115.18 63.3167 114.269C62.0402 113.662 60.7014 112.69 59.6428 111.627C58.771 110.686 57.6502 109.137 57.1831 108.166C56.4359 106.647 56 106.101 56 103.55C56.48 100.48 56.7855 99.68 57.619 98.0542C58.3351 96.6575 60.0787 94.0158 61.5109 92.1635C62.912 90.3113 66.3369 86.6069 69.0768 83.9348C71.8166 81.2324 75.3972 78.0137 77.0162 76.7688C78.6352 75.5238 81.0949 73.7627 82.4649 72.8214C83.8348 71.9105 86.419 70.2708 88.2249 69.2384C90.0307 68.1757 93.5801 66.3234 96.1643 65.1089C98.7174 63.8943 102.36 62.3457 104.259 61.6777C106.159 60.9793 109.303 59.9773 111.265 59.4004C113.226 58.8538 116.745 58.034 119.049 57.5785C121.353 57.123 124.995 56.5765 127.144 56.3335C129.759 56.0603 132.966 55.9388 136.951 56.0299Z" fill="#6C63FF"/>
</svg>
