<svg width="128" height="128" viewBox="0 0 128 128" fill="none" xmlns="http://www.w3.org/2000/svg">
<path d="M128 64C128 99.3462 99.3462 128 64 128C28.6538 128 0 99.3462 0 64C0 28.6538 28.6538 0 64 0C99.3462 0 128 28.6538 128 64Z" fill="#1E1B26"/>
<path fill-rule="evenodd" clip-rule="evenodd" d="M68.4757 28.0149C70.1103 28.0453 72.1652 28.182 73.0681 28.3186C73.971 28.4401 75.4344 28.7285 76.3373 28.9259C77.2402 29.1384 78.5323 29.4876 79.2173 29.7002C79.9023 29.9279 81.2722 30.4745 82.253 30.9299C83.2337 31.3854 84.7438 32.2052 85.6 32.767C86.5185 33.3591 87.8482 34.3498 88.72 35.2C89.5451 35.9895 90.813 37.252 91.28 37.92C91.747 38.588 92.5431 39.805 92.9479 40.64C93.3526 41.475 93.7665 42.845 94 43.68C94.3892 45.0919 94.4735 45.6111 94.4735 48.5109C94.3178 51.3196 94.1602 51.3955 93.7885 52.7619C93.5861 53.5059 93.2125 54.6445 92.9479 55.267C92.6832 55.8895 92.1851 56.8763 91.8426 57.4684C91.5157 58.0605 90.9552 58.9107 90.6128 59.3662C90.2703 59.8217 89.2117 60.9603 88.262 61.8864C87.0789 63.0251 85.9736 63.9209 84.7438 64.7255C83.763 65.3632 81.9416 66.35 80.6962 66.9269C79.4508 67.5039 77.6761 68.2781 76.742 68.6425C75.6367 69.0676 74.9362 69.4472 74.7494 69.6901C74.5937 69.9026 74.4536 70.1607 74.4692 70.267C74.4692 70.3581 75.014 71.0109 75.6834 71.7093C76.4463 72.514 77.1157 73.4097 77.5204 74.184C77.8785 74.8369 78.4389 76.0666 78.7503 76.9016C79.0616 77.7367 79.6999 79.8622 80.1669 81.6081C80.6339 83.3541 81.2099 85.3126 81.4435 85.9351C81.677 86.5575 82.1284 87.514 82.4398 88.0606C82.7356 88.6071 83.3271 89.3966 83.7475 89.8217C84.1678 90.2316 84.9306 90.7782 85.4443 91.0363C86.2383 91.4006 86.5652 91.4766 87.5459 91.4766C88.4489 91.4614 88.9003 91.3855 89.5542 91.097C90.0368 90.8845 90.6283 90.4593 90.9241 90.1102C91.2199 89.7762 91.5157 89.26 91.5935 88.9715C91.6869 88.6527 91.6869 88.2276 91.6091 87.9087C91.5157 87.6051 91.2199 87.18 90.9241 86.9219C90.6283 86.679 90.0835 86.2539 89.7254 86.011C89.3673 85.7681 88.8225 85.1759 88.4956 84.7205C88.1219 84.1739 87.8417 83.5363 87.7172 82.8986C87.5771 82.2761 87.5304 81.5626 87.5926 81.0008C87.6549 80.4846 87.904 79.6952 88.1531 79.179C88.4177 78.6476 88.9159 77.9796 89.3673 77.5848C89.7877 77.2053 90.4726 76.7346 90.893 76.5525C91.3289 76.3551 92.0605 76.1273 92.5276 76.0363C93.1191 75.9452 93.6796 75.9452 94.3178 76.0514C94.8316 76.1425 95.6255 76.3854 96.077 76.598C96.5129 76.8105 97.2601 77.3116 97.696 77.7215C98.1475 78.1314 98.739 78.8601 99.0192 79.346C99.2839 79.847 99.6264 80.6517 99.7509 81.1527C99.891 81.6537 100 82.595 100 83.2478C100 83.8855 99.891 84.9178 99.7509 85.5251C99.6264 86.1172 99.2995 87.1344 99.0504 87.7569C98.7857 88.3794 98.3187 89.3055 98.0229 89.8065C97.7271 90.3075 97.1356 91.1577 96.7308 91.7043C96.326 92.2508 95.2363 93.3895 94.3334 94.2549C93.4305 95.1051 92.0294 96.2134 91.2355 96.7296C90.4571 97.2458 89.414 97.8531 88.947 98.0808C88.48 98.3086 87.4992 98.7033 86.7676 98.9614C86.0359 99.2043 84.915 99.5231 84.2768 99.6446C83.6385 99.766 82.5799 99.9179 81.9416 99.9786C81.3033 100.024 80.1513 99.9938 79.373 99.9179C78.5946 99.8268 77.5204 99.6446 76.96 99.5079C76.3996 99.3713 75.3565 98.9917 74.6249 98.6577C73.8932 98.3237 72.8813 97.762 72.3676 97.3976C71.8538 97.0484 71.0443 96.35 70.5617 95.8642C70.0947 95.3632 69.4253 94.5585 69.0672 94.0575C68.7248 93.5565 68.1488 92.5697 67.7751 91.8561C67.4171 91.1426 66.8878 89.8824 66.592 89.0474C66.3118 88.2124 65.8603 86.4968 65.5957 85.2519C65.3155 83.9917 64.864 82.1851 64.5838 81.2286C64.3036 80.2721 63.8521 78.9361 63.5875 78.268C63.3228 77.6 62.8246 76.6132 62.4977 76.0666C62.1552 75.5201 61.6104 74.7761 61.2835 74.4118C60.9565 74.0474 60.4117 73.5616 60.0692 73.3338C59.7267 73.1061 59.0884 72.8176 58.6681 72.6658C58.2322 72.5292 57.4071 72.4229 56.8 72.4229C56.1929 72.4229 55.4923 72.4836 55.2432 72.5747C54.7918 72.7265 54.7451 72.848 53.7799 75.9603C53.2195 77.7215 52.301 80.5757 51.725 82.2913C51.1645 84.0069 50.3395 86.2539 49.9036 87.3015C49.4832 88.349 48.8294 89.8521 48.4402 90.6415C48.0666 91.431 47.4283 92.5849 47.0236 93.177C46.6188 93.7843 45.9961 94.6041 45.6225 94.9836C45.2644 95.3784 44.5483 95.9705 44.0346 96.3045C43.5209 96.6385 42.7113 97.0484 42.2443 97.2154C41.7773 97.3673 40.7498 97.5343 39.987 97.5798C38.8506 97.6557 38.3524 97.595 37.3405 97.3369C36.6556 97.1547 35.7371 96.8055 35.3168 96.5626C34.8809 96.3349 34.1492 95.8339 33.6822 95.4695C33.2151 95.1051 32.499 94.3915 32.1098 93.8905C31.7051 93.4047 31.2069 92.6456 30.9734 92.2357C30.7555 91.8106 30.5375 91.0666 30.4752 90.5656C30.3818 89.8369 30.413 89.5636 30.6153 89.2296C30.7555 89.0019 31.4871 88.4249 32.2344 87.9543C32.9972 87.4836 33.9779 86.7549 34.445 86.3298C34.912 85.9047 35.7682 84.9482 36.3753 84.1891C36.9669 83.43 37.9165 82.0636 38.477 81.1527C39.0218 80.2417 40.0182 78.4199 40.672 77.1294C41.3258 75.8389 42.1353 74.1992 42.4623 73.4857C42.8048 72.7721 43.5676 71.102 44.1903 69.766C44.7974 68.43 45.9338 66.0008 46.6811 64.3763C47.4439 62.7518 48.845 59.9128 49.7946 58.0757C50.7442 56.2387 51.9741 54.0372 52.5189 53.1719C53.0793 52.3065 54.0912 50.8794 54.7606 49.9836C55.4456 49.0879 56.5665 47.8125 57.2515 47.1445C57.952 46.4765 58.9795 45.6415 59.5243 45.2923C60.0848 44.9431 60.941 44.5028 61.4236 44.3358C61.9217 44.1688 62.7001 44.0322 63.136 44.0322C63.6964 44.017 64.0234 44.0929 64.1479 44.2599C64.3191 44.4421 64.2569 44.7457 63.7898 45.9603C63.4941 46.7802 62.7935 48.7083 62.2486 50.2569C61.7193 51.8055 60.4895 55.2518 59.5243 57.9239C58.5747 60.596 57.6562 63.1618 57.485 63.6172C57.3137 64.0727 57.1892 64.4826 57.1892 64.5281C57.1892 64.5737 58.1855 64.5585 59.3998 64.4978C60.6452 64.4522 62.3887 64.2549 63.3384 64.0727C64.2724 63.8905 65.7513 63.4958 66.6076 63.2073C67.4638 62.9188 68.787 62.3723 69.5654 61.9927C70.3438 61.6132 71.4335 61.0059 72.0095 60.6415C72.6011 60.2771 73.5974 59.4725 74.2512 58.8652C74.9051 58.2731 75.8391 57.1951 76.3217 56.4816C76.8199 55.768 77.4426 54.6142 77.7228 53.9006C78.003 53.187 78.3455 52.1698 78.4545 51.6233C78.579 51.0767 78.7191 49.9229 78.7814 49.0423C78.8437 48.0403 78.8125 46.9927 78.688 46.2336C78.579 45.5656 78.3455 44.5484 78.1743 43.9563C78.003 43.3642 77.5671 42.347 77.2246 41.6789C76.7421 40.7832 76.2283 40.1152 75.2476 39.1587C74.4225 38.3388 73.5507 37.6557 72.9124 37.3065C72.352 37.018 71.4179 36.6233 70.8108 36.4411C69.9702 36.1678 69.2073 36.0767 67.4638 36.0312C65.5645 35.9704 64.9574 36.016 63.5719 36.2893C62.669 36.4714 61.2679 36.851 60.4584 37.1546C59.6489 37.4583 58.31 38.02 57.5005 38.4148C56.691 38.8095 55.2899 39.6142 54.387 40.2063C53.4841 40.7984 52.083 41.8156 51.2735 42.4836C50.464 43.1364 49.0006 44.5028 48.0199 45.4897C47.0391 46.4765 45.6069 48.1162 44.8441 49.1182C44.0813 50.1202 43.0227 51.6536 42.4934 52.519C41.9797 53.3996 41.2381 54.4204 40.88 54.8C40.5375 55.1947 39.7846 55.8136 39.1931 56.2083C38.6015 56.6182 37.7137 57.1778 37.2 57.36C36.4372 57.6485 36.0173 57.7721 34.5384 57.848C32.8259 57.7721 32.608 57.5899 31.6584 57.1344C31.0201 56.8308 30.3507 56.3449 29.8214 55.8136C29.3855 55.3429 28.8251 54.5686 28.5916 54.0828C28.2179 53.3237 28 53.0504 28 51.7751C28.24 50.24 28.3928 49.84 28.8095 49.0271C29.1676 48.3287 30.0393 47.0079 30.7555 46.0818C31.456 45.1557 33.1684 43.3034 34.5384 41.9674C35.9083 40.6162 37.6986 39.0069 38.5081 38.3844C39.3176 37.7619 40.5475 36.8814 41.2324 36.4107C41.9174 35.9552 43.2095 35.1354 44.1124 34.6192C45.0153 34.0878 46.7901 33.1617 48.0822 32.5544C49.3587 31.9471 51.1801 31.1728 52.1297 30.8388C53.0793 30.4897 54.6517 29.9886 55.6324 29.7002C56.6132 29.4269 58.3723 29.017 59.5243 28.7892C60.6763 28.5615 62.4977 28.2882 63.5719 28.1668C64.8796 28.0301 66.483 27.9694 68.4757 28.0149Z" fill="#6C63FF"/>
</svg>
