<svg width="64" height="64" viewBox="0 0 64 64" fill="none" xmlns="http://www.w3.org/2000/svg">
<path d="M64 32C64 49.6731 49.6731 64 32 64C14.3269 64 0 49.6731 0 32C0 14.3269 14.3269 0 32 0C49.6731 0 64 14.3269 64 32Z" fill="#1E1B26"/>
<path fill-rule="evenodd" clip-rule="evenodd" d="M34.2378 14.0075C35.0551 14.0227 36.0826 14.091 36.5341 14.1593C36.9855 14.22 37.7172 14.3643 38.1686 14.4629C38.6201 14.5692 39.2662 14.7438 39.6086 14.8501C39.9511 14.964 40.6361 15.2372 41.1265 15.465C41.6169 15.6927 42.3719 16.1026 42.8 16.3835C43.2592 16.6795 43.9241 17.1749 44.36 17.6C44.7725 17.9947 45.4065 18.626 45.64 18.96C45.8735 19.294 46.2716 19.9025 46.4739 20.32C46.6763 20.7375 46.8832 21.4225 47 21.84C47.1946 22.546 47.2368 22.8056 47.2368 24.2555C47.1589 25.6598 47.0801 25.6978 46.8943 26.381C46.7931 26.7529 46.6063 27.3223 46.4739 27.6335C46.3416 27.9447 46.0925 28.4382 45.9213 28.7342C45.7578 29.0303 45.4776 29.4554 45.3064 29.6831C45.1351 29.9108 44.6058 30.4802 44.131 30.9432C43.5395 31.5126 42.9868 31.9604 42.3719 32.3628C41.8815 32.6816 40.9708 33.175 40.3481 33.4635C39.7254 33.7519 38.838 34.1391 38.371 34.3213C37.8184 34.5338 37.4681 34.7236 37.3747 34.845C37.2969 34.9513 37.2268 35.0804 37.2346 35.1335C37.2346 35.1791 37.507 35.5055 37.8417 35.8547C38.2231 36.257 38.5578 36.7049 38.7602 37.092C38.9392 37.4184 39.2195 38.0333 39.3751 38.4508C39.5308 38.8683 39.8499 39.9311 40.0835 40.8041C40.317 41.677 40.605 42.6563 40.7217 42.9675C40.8385 43.2788 41.0642 43.757 41.2199 44.0303C41.3678 44.3036 41.6636 44.6983 41.8737 44.9108C42.0839 45.1158 42.4653 45.3891 42.7222 45.5181C43.1191 45.7003 43.2826 45.7383 43.773 45.7383C44.2244 45.7307 44.4502 45.6927 44.7771 45.5485C45.0184 45.4422 45.3142 45.2297 45.4621 45.0551C45.6099 44.8881 45.7578 44.63 45.7968 44.4857C45.8435 44.3263 45.8435 44.1138 45.8045 43.9544C45.7578 43.8025 45.6099 43.59 45.4621 43.4609C45.3142 43.3395 45.0417 43.1269 44.8627 43.0055C44.6837 42.884 44.4112 42.588 44.2478 42.3602C44.061 42.087 43.9209 41.7681 43.8586 41.4493C43.7885 41.1381 43.7652 40.7813 43.7963 40.5004C43.8275 40.2423 43.952 39.8476 44.0765 39.5895C44.2089 39.3238 44.4579 38.9898 44.6837 38.7924C44.8938 38.6026 45.2363 38.3673 45.4465 38.2762C45.6644 38.1775 46.0303 38.0637 46.2638 38.0181C46.5596 37.9726 46.8398 37.9726 47.1589 38.0257C47.4158 38.0713 47.8128 38.1927 48.0385 38.299C48.2564 38.4053 48.6301 38.6558 48.848 38.8607C49.0737 39.0657 49.3695 39.4301 49.5096 39.673C49.6419 39.9235 49.8132 40.3258 49.8755 40.5763C49.9455 40.8268 50 41.2975 50 41.6239C50 41.9427 49.9455 42.4589 49.8755 42.7626C49.8132 43.0586 49.6497 43.5672 49.5252 43.8785C49.3929 44.1897 49.1593 44.6528 49.0115 44.9033C48.8636 45.1538 48.5678 45.5789 48.3654 45.8521C48.163 46.1254 47.6182 46.6948 47.1667 47.1274C46.7152 47.5526 46.0147 48.1067 45.6177 48.3648C45.2285 48.6229 44.707 48.9265 44.4735 49.0404C44.24 49.1543 43.7496 49.3516 43.3838 49.4807C43.0179 49.6022 42.4575 49.7616 42.1384 49.8223C41.8192 49.883 41.2899 49.9589 40.9708 49.9893C40.6517 50.0121 40.0757 49.9969 39.6865 49.9589C39.2973 49.9134 38.7602 49.8223 38.48 49.754C38.1998 49.6857 37.6783 49.4959 37.3124 49.3289C36.9466 49.1619 36.4406 48.881 36.1838 48.6988C35.9269 48.5242 35.5222 48.175 35.2809 47.9321C35.0474 47.6816 34.7126 47.2793 34.5336 47.0288C34.3624 46.7783 34.0744 46.2848 33.8876 45.9281C33.7085 45.5713 33.4439 44.9412 33.296 44.5237C33.1559 44.1062 32.9302 43.2484 32.7978 42.6259C32.6577 41.9959 32.432 41.0925 32.2919 40.6143C32.1518 40.136 31.9261 39.468 31.7937 39.134C31.6614 38.8 31.4123 38.3066 31.2489 38.0333C31.0776 37.76 30.8052 37.3881 30.6417 37.2059C30.4783 37.0237 30.2058 36.7808 30.0346 36.6669C29.8633 36.553 29.5442 36.4088 29.3341 36.3329C29.1161 36.2646 28.7036 36.2114 28.4 36.2114C28.0964 36.2114 27.7462 36.2418 27.6216 36.2874C27.3959 36.3633 27.3725 36.424 26.8899 37.9802C26.6097 38.8607 26.1505 40.2879 25.8625 41.1457C25.5823 42.0035 25.1697 43.1269 24.9518 43.6507C24.7416 44.1745 24.4147 44.926 24.2201 45.3208C24.0333 45.7155 23.7142 46.2924 23.5118 46.5885C23.3094 46.8921 22.9981 47.302 22.8112 47.4918C22.6322 47.6892 22.2742 47.9852 22.0173 48.1523C21.7604 48.3193 21.3557 48.5242 21.1222 48.6077C20.8886 48.6836 20.3749 48.7671 19.9935 48.7899C19.4253 48.8279 19.1762 48.7975 18.6703 48.6684C18.3278 48.5774 17.8685 48.4028 17.6584 48.2813C17.4404 48.1674 17.0746 47.9169 16.8411 47.7347C16.6076 47.5526 16.2495 47.1958 16.0549 46.9453C15.8525 46.7024 15.6035 46.3228 15.4867 46.1178C15.3777 45.9053 15.2688 45.5333 15.2376 45.2828C15.1909 44.9184 15.2065 44.7818 15.3077 44.6148C15.3777 44.5009 15.7436 44.2125 16.1172 43.9771C16.4986 43.7418 16.989 43.3774 17.2225 43.1649C17.456 42.9523 17.8841 42.4741 18.1877 42.0946C18.4835 41.715 18.9583 41.0318 19.2385 40.5763C19.5109 40.1209 20.0091 39.2099 20.336 38.5647C20.6629 37.9194 21.0677 37.0996 21.2311 36.7428C21.4024 36.386 21.7838 35.551 22.0951 34.883C22.3987 34.215 22.9669 33.0004 23.3405 32.1882C23.7219 31.3759 24.4225 29.9564 24.8973 29.0379C25.3721 28.1193 25.987 27.0186 26.2595 26.5859C26.5397 26.1532 27.0456 25.4397 27.3803 24.9918C27.7228 24.5439 28.2832 23.9063 28.6257 23.5723C28.976 23.2383 29.4897 22.8207 29.7622 22.6461C30.0424 22.4716 30.4705 22.2514 30.7118 22.1679C30.9609 22.0844 31.3501 22.0161 31.568 22.0161C31.8482 22.0085 32.0117 22.0465 32.0739 22.13C32.1596 22.221 32.1284 22.3729 31.8949 22.9802C31.747 23.3901 31.3968 24.3541 31.1243 25.1284C30.8597 25.9027 30.2448 27.6259 29.7622 28.9619C29.2873 30.298 28.8281 31.5809 28.7425 31.8086C28.6569 32.0363 28.5946 32.2413 28.5946 32.2641C28.5946 32.2868 29.0928 32.2793 29.6999 32.2489C30.3226 32.2261 31.1944 32.1274 31.6692 32.0363C32.1362 31.9452 32.8757 31.7479 33.3038 31.6036C33.7319 31.4594 34.3935 31.1861 34.7827 30.9964C35.1719 30.8066 35.7168 30.5029 36.0048 30.3208C36.3005 30.1386 36.7987 29.7362 37.1256 29.4326C37.4525 29.1365 37.9196 28.5976 38.1609 28.2408C38.4099 27.884 38.7213 27.3071 38.8614 26.9503C39.0015 26.5935 39.1728 26.0849 39.2272 25.8116C39.2895 25.5384 39.3596 24.9614 39.3907 24.5212C39.4218 24.0201 39.4063 23.4964 39.344 23.1168C39.2895 22.7828 39.1728 22.2742 39.0871 21.9781C39.0015 21.6821 38.7836 21.1735 38.6123 20.8395C38.371 20.3916 38.1142 20.0576 37.6238 19.5793C37.2112 19.1694 36.7753 18.8278 36.4562 18.6532C36.176 18.509 35.709 18.3116 35.4054 18.2205C34.9851 18.0839 34.6037 18.0383 33.7319 18.0156C32.7823 17.9852 32.4787 18.008 31.7859 18.1446C31.3345 18.2357 30.6339 18.4255 30.2292 18.5773C29.8244 18.7291 29.155 19.01 28.7503 19.2074C28.3455 19.4047 27.645 19.8071 27.1935 20.1031C26.7421 20.3992 26.0415 20.9078 25.6368 21.2418C25.232 21.5682 24.5003 22.2514 24.0099 22.7448C23.5196 23.2383 22.8035 24.0581 22.4221 24.5591C22.0406 25.0601 21.5113 25.8268 21.2467 26.2595C20.9898 26.6998 20.619 27.2102 20.44 27.4C20.2688 27.5974 19.8923 27.9068 19.5965 28.1042C19.3008 28.3091 18.8569 28.5889 18.6 28.68C18.2186 28.8242 18.0086 28.886 17.2692 28.924C16.413 28.886 16.304 28.7949 15.8292 28.5672C15.5101 28.4154 15.1754 28.1725 14.9107 27.9068C14.6928 27.6715 14.4125 27.2843 14.2958 27.0414C14.109 26.6618 14 26.5252 14 25.8875C14.12 25.12 14.1964 24.92 14.4048 24.5136C14.5838 24.1644 15.0197 23.5039 15.3777 23.0409C15.728 22.5778 16.5842 21.6517 17.2692 20.9837C17.9542 20.3081 18.8493 19.5034 19.2541 19.1922C19.6588 18.881 20.2737 18.4407 20.6162 18.2054C20.9587 17.9776 21.6048 17.5677 22.0562 17.3096C22.5077 17.0439 23.395 16.5809 24.0411 16.2772C24.6794 15.9736 25.5901 15.5864 26.0649 15.4194C26.5397 15.2448 27.3258 14.9943 27.8162 14.8501C28.3066 14.7134 29.1862 14.5085 29.7622 14.3946C30.3382 14.2808 31.2489 14.1441 31.7859 14.0834C32.4398 14.0151 33.2415 13.9847 34.2378 14.0075Z" fill="#6C63FF"/>
</svg>
