<svg width="32" height="32" viewBox="0 0 32 32" fill="none" xmlns="http://www.w3.org/2000/svg">
<path d="M32 16C32 24.8366 24.8366 32 16 32C7.16344 32 0 24.8366 0 16C0 7.16344 7.16344 0 16 0C24.8366 0 32 7.16344 32 16Z" fill="#1E1B26"/>
<path fill-rule="evenodd" clip-rule="evenodd" d="M17.1189 7.00374C17.5276 7.01133 18.0413 7.04549 18.267 7.07965C18.4928 7.11001 18.8586 7.18213 19.0843 7.23147C19.3101 7.28461 19.6331 7.37191 19.8043 7.42504C19.9756 7.48198 20.3181 7.61862 20.5632 7.73248C20.8084 7.84635 21.1859 8.05131 21.4 8.19174C21.6296 8.33977 21.9621 8.58745 22.18 8.8C22.3863 8.99737 22.7032 9.313 22.82 9.48C22.9368 9.647 23.1358 9.95124 23.237 10.16C23.3382 10.3688 23.4416 10.7112 23.5 10.92C23.5973 11.273 23.6184 11.4028 23.6184 12.1277C23.5795 12.8299 23.5401 12.8489 23.4471 13.1905C23.3965 13.3765 23.3031 13.6611 23.237 13.8168C23.1708 13.9724 23.0463 14.2191 22.9606 14.3671C22.8789 14.5151 22.7388 14.7277 22.6532 14.8416C22.5676 14.9554 22.3029 15.2401 22.0655 15.4716C21.7697 15.7563 21.4934 15.9802 21.1859 16.1814C20.9408 16.3408 20.4854 16.5875 20.1741 16.7317C19.8627 16.876 19.419 17.0695 19.1855 17.1606C18.9092 17.2669 18.7341 17.3618 18.6873 17.4225C18.6484 17.4757 18.6134 17.5402 18.6173 17.5668C18.6173 17.5895 18.7535 17.7527 18.9209 17.9273C19.1116 18.1285 19.2789 18.3524 19.3801 18.546C19.4696 18.7092 19.6097 19.0167 19.6876 19.2254C19.7654 19.4342 19.925 19.9655 20.0417 20.402C20.1585 20.8385 20.3025 21.3281 20.3609 21.4838C20.4192 21.6394 20.5321 21.8785 20.6099 22.0151C20.6839 22.1518 20.8318 22.3491 20.9369 22.4554C21.0419 22.5579 21.2326 22.6945 21.3611 22.7591C21.5596 22.8502 21.6413 22.8691 21.8865 22.8691C22.1122 22.8653 22.2251 22.8464 22.3885 22.7743C22.5092 22.7211 22.6571 22.6148 22.731 22.5275C22.805 22.444 22.8789 22.315 22.8984 22.2429C22.9217 22.1632 22.9217 22.0569 22.9023 21.9772C22.8789 21.9013 22.805 21.795 22.731 21.7305C22.6571 21.6697 22.5209 21.5635 22.4313 21.5027C22.3418 21.442 22.2056 21.294 22.1239 21.1801C22.0305 21.0435 21.9604 20.8841 21.9293 20.7247C21.8943 20.569 21.8826 20.3906 21.8982 20.2502C21.9137 20.1212 21.976 19.9238 22.0383 19.7947C22.1044 19.6619 22.229 19.4949 22.3418 19.3962C22.4469 19.3013 22.6182 19.1837 22.7232 19.1381C22.8322 19.0888 23.0151 19.0318 23.1319 19.0091C23.2798 18.9863 23.4199 18.9863 23.5795 19.0129C23.7079 19.0356 23.9064 19.0964 24.0192 19.1495C24.1282 19.2026 24.315 19.3279 24.424 19.4304C24.5369 19.5329 24.6848 19.715 24.7548 19.8365C24.821 19.9617 24.9066 20.1629 24.9377 20.2882C24.9728 20.4134 25 20.6487 25 20.812C25 20.9714 24.9728 21.2295 24.9377 21.3813C24.9066 21.5293 24.8249 21.7836 24.7626 21.9392C24.6964 22.0948 24.5797 22.3264 24.5057 22.4516C24.4318 22.5769 24.2839 22.7894 24.1827 22.9261C24.0815 23.0627 23.8091 23.3474 23.5834 23.5637C23.3576 23.7763 23.0073 24.0533 22.8089 24.1824C22.6143 24.3114 22.3535 24.4633 22.2368 24.5202C22.12 24.5771 21.8748 24.6758 21.6919 24.7403C21.509 24.8011 21.2288 24.8808 21.0692 24.9111C20.9096 24.9415 20.645 24.9795 20.4854 24.9946C20.3258 25.006 20.0378 24.9984 19.8432 24.9795C19.6486 24.9567 19.3801 24.9111 19.24 24.877C19.0999 24.8428 18.8391 24.7479 18.6562 24.6644C18.4733 24.5809 18.2203 24.4405 18.0919 24.3494C17.9635 24.2621 17.7611 24.0875 17.6404 23.9661C17.5237 23.8408 17.3563 23.6396 17.2668 23.5144C17.1812 23.3891 17.0372 23.1424 16.9438 22.964C16.8543 22.7856 16.7219 22.4706 16.648 22.2619C16.5779 22.0531 16.4651 21.6242 16.3989 21.313C16.3289 20.9979 16.216 20.5463 16.1459 20.3071C16.0759 20.068 15.963 19.734 15.8969 19.567C15.8307 19.4 15.7062 19.1533 15.6244 19.0167C15.5388 18.88 15.4026 18.694 15.3209 18.6029C15.2391 18.5118 15.1029 18.3904 15.0173 18.3335C14.9317 18.2765 14.7721 18.2044 14.667 18.1665C14.5581 18.1323 14.3518 18.1057 14.2 18.1057C14.0482 18.1057 13.8731 18.1209 13.8108 18.1437C13.6979 18.1816 13.6863 18.212 13.445 18.9901C13.3049 19.4304 13.0752 20.1439 12.9312 20.5728C12.7911 21.0017 12.5849 21.5635 12.4759 21.8254C12.3708 22.0873 12.2074 22.463 12.1101 22.6604C12.0166 22.8578 11.8571 23.1462 11.7559 23.2942C11.6547 23.4461 11.499 23.651 11.4056 23.7459C11.3161 23.8446 11.1371 23.9926 11.0086 24.0761C10.8802 24.1596 10.6778 24.2621 10.5611 24.3039C10.4443 24.3418 10.1875 24.3836 9.99676 24.395C9.71265 24.4139 9.58811 24.3987 9.33513 24.3342C9.16389 24.2887 8.93427 24.2014 8.82919 24.1407C8.72021 24.0837 8.5373 23.9585 8.42054 23.8674C8.30378 23.7763 8.12476 23.5979 8.02746 23.4726C7.92627 23.3512 7.80173 23.1614 7.74335 23.0589C7.68886 22.9526 7.63438 22.7667 7.61881 22.6414C7.59546 22.4592 7.60324 22.3909 7.65384 22.3074C7.68886 22.2505 7.87178 22.1062 8.05859 21.9886C8.2493 21.8709 8.49449 21.6887 8.61124 21.5824C8.728 21.4762 8.94205 21.2371 9.09384 21.0473C9.24173 20.8575 9.47913 20.5159 9.61924 20.2882C9.75546 20.0604 10.0045 19.605 10.168 19.2823C10.3315 18.9597 10.5338 18.5498 10.6156 18.3714C10.7012 18.193 10.8919 17.7755 11.0476 17.4415C11.1994 17.1075 11.4835 16.5002 11.6703 16.0941C11.861 15.688 12.2112 14.9782 12.4486 14.5189C12.6861 14.0597 12.9935 13.5093 13.1297 13.293C13.2698 13.0766 13.5228 12.7198 13.6902 12.4959C13.8614 12.272 14.1416 11.9531 14.3129 11.7861C14.488 11.6191 14.7449 11.4104 14.8811 11.3231C15.0212 11.2358 15.2352 11.1257 15.3559 11.084C15.4804 11.0422 15.675 11.008 15.784 11.008C15.9241 11.0042 16.0058 11.0232 16.037 11.065C16.0798 11.1105 16.0642 11.1864 15.9475 11.4901C15.8735 11.695 15.6984 12.1771 15.5622 12.5642C15.4298 12.9514 15.1224 13.813 14.8811 14.481C14.6437 15.149 14.4141 15.7904 14.3712 15.9043C14.3284 16.0182 14.2973 16.1207 14.2973 16.132C14.2973 16.1434 14.5464 16.1396 14.8499 16.1244C15.1613 16.1131 15.5972 16.0637 15.8346 16.0182C16.0681 15.9726 16.4378 15.8739 16.6519 15.8018C16.8659 15.7297 17.1968 15.5931 17.3914 15.4982C17.5859 15.4033 17.8584 15.2515 18.0024 15.1604C18.1503 15.0693 18.3993 14.8681 18.5628 14.7163C18.7263 14.5683 18.9598 14.2988 19.0804 14.1204C19.205 13.942 19.3606 13.6535 19.4307 13.4752C19.5008 13.2968 19.5864 13.0425 19.6136 12.9058C19.6448 12.7692 19.6798 12.4807 19.6954 12.2606C19.7109 12.0101 19.7031 11.7482 19.672 11.5584C19.6448 11.3914 19.5864 11.1371 19.5436 10.9891C19.5008 10.841 19.3918 10.5867 19.3062 10.4197C19.1855 10.1958 19.0571 10.0288 18.8119 9.78967C18.6056 9.58471 18.3877 9.41391 18.2281 9.32662C18.088 9.2545 17.8545 9.15581 17.7027 9.11027C17.4925 9.04195 17.3018 9.01917 16.8659 9.00779C16.3911 8.99261 16.2394 9.00399 15.893 9.07231C15.6672 9.11786 15.317 9.21275 15.1146 9.28866C14.9122 9.36457 14.5775 9.50501 14.3751 9.60369C14.1728 9.70237 13.8225 9.90354 13.5968 10.0516C13.371 10.1996 13.0208 10.4539 12.8184 10.6209C12.616 10.7841 12.2502 11.1257 12.005 11.3724C11.7598 11.6191 11.4017 12.029 11.211 12.2796C11.0203 12.5301 10.7557 12.9134 10.6233 13.1298C10.4949 13.3499 10.3095 13.6051 10.22 13.7C10.1344 13.7987 9.94616 13.9534 9.79827 14.0521C9.65038 14.1546 9.42843 14.2945 9.3 14.34C9.1093 14.4121 9.00432 14.443 8.63459 14.462C8.20649 14.443 8.152 14.3975 7.91459 14.2836C7.75503 14.2077 7.58768 14.0862 7.45535 13.9534C7.34638 13.8357 7.20627 13.6422 7.14789 13.5207C7.05449 13.3309 7 13.2626 7 12.9438C7.06 12.56 7.09819 12.46 7.20238 12.2568C7.29189 12.0822 7.50984 11.752 7.68886 11.5204C7.864 11.2889 8.29211 10.8259 8.63459 10.4918C8.97708 10.154 9.42465 9.75172 9.62703 9.5961C9.8294 9.44048 10.1369 9.22034 10.3081 9.10268C10.4794 8.98881 10.8024 8.78385 11.0281 8.6548C11.2538 8.52196 11.6975 8.29043 12.0205 8.13861C12.3397 7.98679 12.795 7.79321 13.0324 7.70971C13.2698 7.62241 13.6629 7.49716 13.9081 7.42504C14.1533 7.35672 14.5931 7.25424 14.8811 7.19731C15.1691 7.14038 15.6244 7.07206 15.893 7.04169C16.2199 7.00753 16.6208 6.99235 17.1189 7.00374Z" fill="#6C63FF"/>
</svg>
